<svg width="32" height="32" viewBox="0 0 32 32" fill="none" xmlns="http://www.w3.org/2000/svg">
  <defs>
    <linearGradient id="bg-grad" x1="0%" y1="0%" x2="100%" y2="100%">
      <stop offset="0%" style="stop-color:#7C3AED;stop-opacity:1" />
      <stop offset="50%" style="stop-color:#5B21B6;stop-opacity:1" />
      <stop offset="100%" style="stop-color:#F97316;stop-opacity:1" />
    </linearGradient>
  </defs>

  <!-- Rounded background -->
  <rect width="32" height="32" rx="8" fill="url(#bg-grad)" />

  <!-- Brain left hemisphere -->
  <path d="M10 16 C10 11 12 8 16 8 L16 16 Z" fill="white" opacity="0.9"/>
  <!-- Brain right hemisphere -->
  <path d="M22 16 C22 11 20 8 16 8 L16 16 Z" fill="white" opacity="0.75"/>
  <!-- Brain fold detail -->
  <path d="M13 11 Q14.5 13 16 11" stroke="url(#bg-grad)" stroke-width="0.8" fill="none" opacity="0.6"/>
  <path d="M16 11 Q17.5 13 19 11" stroke="url(#bg-grad)" stroke-width="0.8" fill="none" opacity="0.6"/>

  <!-- Rising chart line below brain -->
  <path d="M9 24 L13 22 L17 23 L21 19 L23 20" stroke="white" stroke-width="1.8" stroke-linecap="round" stroke-linejoin="round" opacity="0.95"/>
  <!-- Chart arrow tip -->
  <path d="M21.5 18 L23 20 L21 20.5" stroke="white" stroke-width="1.2" stroke-linecap="round" stroke-linejoin="round" fill="none" opacity="0.95"/>

  <!-- Connection dots -->
  <circle cx="16" cy="16" r="1" fill="white" opacity="0.7"/>
</svg>
